<svg width="16" height="9" viewBox="0 0 16 9" fill="none" xmlns="http://www.w3.org/2000/svg">
<path d="M1.47546 4.85141H9.64016V6.38607H4.65729H4.49863C4.25758 5.72455 3.62339 5.25101 2.87975 5.25101C2.14742 5.25101 1.52046 5.71099 1.27176 6.35666C0.965369 6.26817 0.74091 5.98624 0.74091 5.65117V5.58573C0.740782 5.18001 1.06987 4.85141 1.47546 4.85141ZM4.10461 6.80275C4.10461 7.5092 3.5294 8.08412 2.82237 8.08412C2.11595 8.08412 1.5408 7.50917 1.5408 6.80275C1.5408 6.09569 2.11595 5.52047 2.82237 5.52047C3.5294 5.52047 4.10461 6.09565 4.10461 6.80275ZM3.71227 6.80275C3.71227 6.31185 3.31336 5.91275 2.82234 5.91275C2.33147 5.91275 1.93273 6.31201 1.93273 6.80275C1.93273 7.2931 2.33167 7.69203 2.82234 7.69203C3.31349 7.69216 3.71227 7.29307 3.71227 6.80275ZM14.1303 6.80275C14.1303 7.5092 13.5551 8.08412 12.8484 8.08412C12.1417 8.08412 11.5668 7.50917 11.5668 6.80275C11.5668 6.09569 12.1417 5.52047 12.8484 5.52047C13.5551 5.52047 14.1303 6.09565 14.1303 6.80275ZM13.7384 6.80275C13.7384 6.31185 13.3391 5.91275 12.8486 5.91275C12.358 5.91275 11.9591 6.31201 11.9591 6.80275C11.9591 7.2931 12.3584 7.69203 12.8486 7.69203C13.3391 7.69216 13.7384 7.29307 13.7384 6.80275ZM16 3.92895V6.01886C16 6.15406 15.8899 6.2638 15.7552 6.2638H14.4743C14.2035 5.66705 13.6022 5.25101 12.9057 5.25101C12.2089 5.25101 11.6081 5.66718 11.3369 6.2638H10.4728C10.3377 6.2638 10.2276 6.15406 10.2276 6.01886V1.00629C10.2276 0.870867 10.3377 0.761354 10.4728 0.761354H13.6977C13.8327 0.761354 14.0385 0.806355 14.1873 1.00629L16 3.92895ZM14.8571 3.29189L13.755 1.46321C13.6698 1.3058 13.565 1.21866 13.1915 1.21866H11.1912C11.0561 1.21866 10.9464 1.32798 10.9464 1.46321V3.29189C10.9464 3.42751 11.0561 3.53699 11.1912 3.53699H14.6118C14.7474 3.53699 14.8571 3.42751 14.8571 3.29189ZM15.8122 5.26757C15.8122 5.14147 15.7098 5.03893 15.5835 5.03893C15.4569 5.03893 15.3547 5.14131 15.3547 5.26757V5.70025C15.3547 5.82658 15.4569 5.92908 15.5835 5.92908C15.7099 5.92908 15.8122 5.8269 15.8122 5.70025V5.26757ZM0 4.41271H9.64016V0H0V4.41271Z" fill="black"/>
</svg>
