<svg width="492" height="550" viewBox="0 0 492 550" fill="none" xmlns="http://www.w3.org/2000/svg">
<path d="M139.662 19.325C139.662 19.325 131.412 0 118.812 0C106.412 0 99.9623 5.725 95.6623 9.675C91.3623 13.625 19.4123 72.75 19.4123 72.75C19.4123 72.75 -1.51271 91.025 0.0872926 125.4C1.43729 159.775 8.16229 208.7 43.0623 276.85C77.7123 344.85 164.437 448.75 219.237 485.275C219.237 485.275 270.012 524.225 317.262 540.05C330.987 544.375 358.437 550 364.837 550C371.337 550 382.812 550 395.987 540.375C409.387 530.65 484.562 470.2 484.562 470.2C484.562 470.2 502.962 453.575 481.587 434.25C460.112 414.925 394.912 371.95 380.962 360.65C366.987 349.175 347.087 354.225 338.487 362C329.912 369.825 314.587 382.7 312.712 384.325C309.912 386.475 302.237 393.45 293.637 389.975C282.687 385.65 237.787 361.275 196.162 304.325C154.787 247.425 150.237 228.825 144.062 208.725C143.015 205.754 143.001 202.516 144.021 199.535C145.042 196.555 147.038 194.006 149.687 192.3C155.887 188 178.712 168.975 178.712 168.975C178.712 168.975 193.487 154.4 187.312 137.225C181.137 120.05 139.662 19.325 139.662 19.325Z" fill="#03484D"/>
</svg>
