<svg width="584" height="583" viewBox="0 0 584 583" fill="none" xmlns="http://www.w3.org/2000/svg">
<path d="M491.667 582.414H391.667C385.037 582.414 378.677 579.781 373.99 575.091C369.3 570.404 366.667 564.044 366.667 557.414C366.667 550.784 369.3 544.424 373.99 539.734C378.677 535.047 385.037 532.414 391.667 532.414H491.667C501.564 533.274 511.414 530.29 519.17 524.084C526.93 517.88 532 508.924 533.334 499.08V83.4128C532 73.5678 526.93 64.6135 519.17 58.4072C511.414 52.2012 501.564 49.2188 491.667 50.0795H391.667C385.037 50.0795 378.677 47.4458 373.99 42.7572C369.3 38.0688 366.667 31.7102 366.667 25.0795C366.667 18.4492 369.3 12.0905 373.99 7.40184C378.677 2.71351 385.037 0.0795072 391.667 0.0795072H491.667C503.227 -0.412159 514.767 1.38018 525.634 5.35418C536.497 9.32784 546.474 15.4052 554.987 23.2382C563.5 31.0712 570.387 40.5062 575.25 51.0032C580.117 61.5002 582.864 72.8535 583.334 84.4128V498.08C582.864 509.64 580.117 520.994 575.25 531.49C570.387 541.987 563.5 551.421 554.987 559.254C546.474 567.087 536.497 573.164 525.634 577.137C514.767 581.114 503.227 582.904 491.667 582.414Z" fill="#03484D"/>
<path d="M258.334 449.08C255.051 449.094 251.794 448.454 248.761 447.194C245.727 445.937 242.977 444.084 240.667 441.747C235.987 437.057 233.357 430.704 233.357 424.08C233.357 417.454 235.987 411.1 240.667 406.414L356.334 290.747L240.667 175.079C236.251 170.34 233.847 164.072 233.961 157.595C234.077 151.119 236.701 144.939 241.281 140.359C245.861 135.778 252.041 133.154 258.517 133.04C264.994 132.926 271.261 135.33 276.001 139.746L409.334 273.08C414.017 277.767 416.647 284.12 416.647 290.747C416.647 297.37 414.017 303.724 409.334 308.414L276.001 441.747C273.694 444.084 270.941 445.937 267.907 447.194C264.874 448.454 261.621 449.094 258.334 449.08Z" fill="#03484D"/>
<path d="M391.667 315.747H25C18.3697 315.747 12.0107 313.114 7.32233 308.424C2.634 303.737 0 297.377 0 290.747C0 284.117 2.634 277.757 7.32233 273.07C12.0107 268.38 18.3697 265.747 25 265.747H391.667C398.297 265.747 404.657 268.38 409.343 273.07C414.033 277.757 416.667 284.117 416.667 290.747C416.667 297.377 414.033 303.737 409.343 308.424C404.657 313.114 398.297 315.747 391.667 315.747Z" fill="#03484D"/>
</svg>
