<svg width="17" height="10" viewBox="0 0 17 10" fill="none" xmlns="http://www.w3.org/2000/svg">
<path d="M1.97546 5.80941H10.1402V7.34408H5.15729H4.99863C4.75758 6.68256 4.12339 6.20902 3.37975 6.20902C2.64742 6.20902 2.02046 6.669 1.77176 7.31467C1.46537 7.22617 1.24091 6.94424 1.24091 6.60918V6.54373C1.24078 6.13802 1.56987 5.80941 1.97546 5.80941ZM4.60461 7.76076C4.60461 8.46721 4.0294 9.04213 3.32237 9.04213C2.61595 9.04213 2.0408 8.46718 2.0408 7.76076C2.0408 7.05369 2.61595 6.47848 3.32237 6.47848C4.0294 6.47848 4.60461 7.05366 4.60461 7.76076ZM4.21227 7.76076C4.21227 7.26986 3.81336 6.87076 3.32234 6.87076C2.83147 6.87076 2.43273 7.27002 2.43273 7.76076C2.43273 8.25111 2.83167 8.65004 3.32234 8.65004C3.81349 8.65017 4.21227 8.25107 4.21227 7.76076ZM14.6303 7.76076C14.6303 8.46721 14.0551 9.04213 13.3484 9.04213C12.6417 9.04213 12.0668 8.46718 12.0668 7.76076C12.0668 7.05369 12.6417 6.47848 13.3484 6.47848C14.0551 6.47848 14.6303 7.05366 14.6303 7.76076ZM14.2384 7.76076C14.2384 7.26986 13.8391 6.87076 13.3486 6.87076C12.858 6.87076 12.4591 7.27002 12.4591 7.76076C12.4591 8.25111 12.8584 8.65004 13.3486 8.65004C13.8391 8.65017 14.2384 8.25107 14.2384 7.76076ZM16.5 4.88695V6.97687C16.5 7.11206 16.3899 7.2218 16.2552 7.2218H14.9743C14.7035 6.62506 14.1022 6.20902 13.4057 6.20902C12.7089 6.20902 12.1081 6.62519 11.8369 7.2218H10.9728C10.8377 7.2218 10.7276 7.11206 10.7276 6.97687V1.9643C10.7276 1.82887 10.8377 1.71936 10.9728 1.71936H14.1977C14.3327 1.71936 14.5385 1.76436 14.6873 1.9643L16.5 4.88695ZM15.3571 4.2499L14.255 2.42122C14.1698 2.26381 14.065 2.17667 13.6915 2.17667H11.6912C11.5561 2.17667 11.4464 2.28599 11.4464 2.42122V4.2499C11.4464 4.38551 11.5561 4.495 11.6912 4.495H15.1118C15.2474 4.495 15.3571 4.38551 15.3571 4.2499ZM16.3122 6.22558C16.3122 6.09948 16.2098 5.99694 16.0835 5.99694C15.9569 5.99694 15.8547 6.09932 15.8547 6.22558V6.65826C15.8547 6.78459 15.9569 6.88709 16.0835 6.88709C16.2099 6.88709 16.3122 6.78491 16.3122 6.65826V6.22558ZM0.5 5.37072H10.1402V0.958008H0.5V5.37072Z" fill="white"/>
</svg>
